<mxfile host="app.diagrams.net" modified="2023-11-28T15:58:50.289Z" agent="Mozilla/5.0 (Windows NT 10.0; Win64; x64) AppleWebKit/537.36 (KHTML, like Gecko) Chrome/116.0.0.0 Safari/537.36" version="22.1.4" etag="g0B1LI67MVohPpnP1UoB" type="device">
  <diagram id="8GVHYwYAfHERj5PKHoVg" name="Trang-1">
    <mxGraphModel dx="4424" dy="2236" grid="1" gridSize="10" guides="1" tooltips="1" connect="1" arrows="1" fold="1" page="0" pageScale="1" pageWidth="827" pageHeight="1169" background="none" math="0" shadow="0">
      <root>
        <mxCell id="0" />
        <mxCell id="1" parent="0" />
        <mxCell id="node9" value="&lt;p style=&quot;margin:0px;margin-top:4px;text-align:center;&quot;&gt;&lt;b&gt;Aplication&lt;/b&gt;&lt;/p&gt;&lt;hr size=&quot;1&quot;/&gt;&lt;p style=&quot;margin:0 0 0 4px;line-height:1.6;&quot;&gt;+ AppStage: Stage&lt;/p&gt;&lt;hr size=&quot;1&quot;/&gt;&lt;p style=&quot;margin:0 0 0 4px;line-height:1.6;&quot;&gt;+ Application(): void&lt;br/&gt;+ main(String[]): void&lt;br/&gt;+ start(Stage): void&lt;br/&gt;+ init(): void&lt;/p&gt;" style="verticalAlign=top;align=left;overflow=fill;fontSize=14;fontFamily=Helvetica;html=1;rounded=0;shadow=0;comic=0;labelBackgroundColor=none;strokeWidth=1;" parent="1" vertex="1">
          <mxGeometry x="260" y="1897" width="168" height="162" as="geometry" />
        </mxCell>
        <mxCell id="node16" value="&lt;p style=&quot;margin:0px;margin-top:4px;text-align:center;&quot;&gt;&lt;b&gt;ChinhSuaControl&lt;/b&gt;&lt;/p&gt;&lt;hr size=&quot;1&quot;/&gt;&lt;p style=&quot;margin:0 0 0 4px;line-height:1.6;&quot;&gt;- background: ImageView&lt;br/&gt;- explainInput: TextArea&lt;br/&gt;- GAMEBUTTON: Button&lt;br/&gt;- LICHSUBUTTON: Button&lt;br/&gt;- attributeInput: TextArea&lt;br/&gt;- HUONGDANBUTTON: Button&lt;br/&gt;- TRATUBUTTON: Button&lt;br/&gt;- ADD: Button&lt;br/&gt;- BACKTOMENU: Button&lt;br/&gt;- DICHVANBANBUTTON: Button&lt;br/&gt;- THONGKEBUTTON: Button&lt;br/&gt;- wordInput: TextArea&lt;/p&gt;&lt;hr size=&quot;1&quot;/&gt;&lt;p style=&quot;margin:0 0 0 4px;line-height:1.6;&quot;&gt;- openFXMLWindow(String): void&lt;br/&gt;- openFXMLWindow1(String): void&lt;br/&gt;- updateWord(): void&lt;br/&gt;+ initialize(): void&lt;br/&gt;- insertWord(): void&lt;/p&gt;" style="verticalAlign=top;align=left;overflow=fill;fontSize=14;fontFamily=Helvetica;html=1;rounded=0;shadow=0;comic=0;labelBackgroundColor=none;strokeWidth=1;" parent="1" vertex="1">
          <mxGeometry x="1378" y="115" width="249" height="450" as="geometry" />
        </mxCell>
        <mxCell id="tag6454HZUf9Bsy3X2O9-6" style="edgeStyle=orthogonalEdgeStyle;shape=connector;rounded=0;orthogonalLoop=1;jettySize=auto;html=1;exitX=0;exitY=0.25;exitDx=0;exitDy=0;entryX=1;entryY=0.25;entryDx=0;entryDy=0;dashed=1;labelBackgroundColor=default;strokeColor=default;align=center;verticalAlign=middle;fontFamily=Helvetica;fontSize=11;fontColor=default;endArrow=open;endFill=0;" edge="1" parent="1" source="node14" target="node1">
          <mxGeometry relative="1" as="geometry" />
        </mxCell>
        <mxCell id="node14" value="&lt;p style=&quot;margin:0px;margin-top:4px;text-align:center;&quot;&gt;&lt;b&gt;DatabaseConnect&lt;/b&gt;&lt;/p&gt;&lt;hr size=&quot;1&quot;/&gt;&lt;p style=&quot;margin:0 0 0 4px;line-height:1.6;&quot;&gt;- PASSWORD: String&lt;br/&gt;- DatabaseURL: String&lt;br/&gt;- conn: Connection&lt;br/&gt;- USER_NAME: String&lt;/p&gt;&lt;hr size=&quot;1&quot;/&gt;&lt;p style=&quot;margin:0 0 0 4px;line-height:1.6;&quot;&gt;+ deleteWord(String): String&lt;br/&gt;+ updateWord(String, String): String&lt;br/&gt;+ isempty(String): boolean&lt;br/&gt;+ getConn(): Connection&lt;br/&gt;+ loadDatabase(): void&lt;br/&gt;+ lookUpWord(String): String&lt;br/&gt;+ insertWord(String, String): String&lt;br/&gt;+ loadAllTargets(): ArrayList&amp;lt;String&amp;gt;&lt;br/&gt;+ updateTime(String): void&lt;/p&gt;" style="verticalAlign=top;align=left;overflow=fill;fontSize=14;fontFamily=Helvetica;html=1;rounded=0;shadow=0;comic=0;labelBackgroundColor=none;strokeWidth=1;" parent="1" vertex="1">
          <mxGeometry x="1208" y="1426" width="264" height="354" as="geometry" />
        </mxCell>
        <mxCell id="node17" value="&lt;p style=&quot;margin:0px;margin-top:4px;text-align:center;&quot;&gt;&lt;b&gt;DichVanBanControl&lt;/b&gt;&lt;/p&gt;&lt;hr size=&quot;1&quot;/&gt;&lt;p style=&quot;margin:0 0 0 4px;line-height:1.6;&quot;&gt;- LangOut: TextArea&lt;br/&gt;- HUONGDANBUTTON: Button&lt;br/&gt;- LangIn: TextArea&lt;br/&gt;- GAMEBUTTON: Button&lt;br/&gt;- background: ImageView&lt;br/&gt;- BACKTOMENU: Button&lt;br/&gt;- lang1: Button&lt;br/&gt;- LICHSUBUTTON: Button&lt;br/&gt;- swapLang: Button&lt;br/&gt;- CHINHSUABUTTON: Button&lt;br/&gt;- lang2: Button&lt;br/&gt;- THONGKEBUTTON: Button&lt;br/&gt;- TransButton: Button&lt;br/&gt;- EnToVi: boolean&lt;br/&gt;- TRATUBUTTON: Button&lt;br/&gt;- speaker: Button&lt;/p&gt;&lt;hr size=&quot;1&quot;/&gt;&lt;p style=&quot;margin:0 0 0 4px;line-height:1.6;&quot;&gt;+ translateParagraphEntoVi(): void&lt;br/&gt;+ swapLang(): void&lt;br/&gt;+ playVoice(): void&lt;br/&gt;- openFXMLWindow(String): void&lt;br/&gt;+ initialize(): void&lt;/p&gt;" style="verticalAlign=top;align=left;overflow=fill;fontSize=14;fontFamily=Helvetica;html=1;rounded=0;shadow=0;comic=0;labelBackgroundColor=none;strokeWidth=1;" parent="1" vertex="1">
          <mxGeometry x="1084" y="115" width="249" height="546" as="geometry" />
        </mxCell>
        <mxCell id="node19" value="&lt;p style=&quot;margin:0px;margin-top:4px;text-align:center;&quot;&gt;&lt;b&gt;FlashcardControl&lt;/b&gt;&lt;/p&gt;&lt;hr size=&quot;1&quot;/&gt;&lt;p style=&quot;margin:0 0 0 4px;line-height:1.6;&quot;&gt;- NextButton: Button&lt;br/&gt;- flashcard: WebView&lt;br/&gt;- THONGKEBUTTON: Button&lt;br/&gt;- newFlashcard: flashCard&lt;br/&gt;- BACKTOMENU: Button&lt;br/&gt;- TRATUBUTTON: Button&lt;br/&gt;- CHINHSUABUTTON: Button&lt;br/&gt;- LICHSUBUTTON: Button&lt;br/&gt;- background: ImageView&lt;br/&gt;- BackButton: Button&lt;br/&gt;- GAMEBUTTON: Button&lt;br/&gt;- HUONGDANBUTTON: Button&lt;br/&gt;- isQuestionDisplayed: boolean&lt;br/&gt;- DICHVANBANBUTTON: Button&lt;/p&gt;&lt;hr size=&quot;1&quot;/&gt;&lt;p style=&quot;margin:0 0 0 4px;line-height:1.6;&quot;&gt;- handleBackButtonClicked(): void&lt;br/&gt;- getPreviousQuestion(String): String&lt;br/&gt;- getNextQuestion(String): String&lt;br/&gt;+ initialize(): void&lt;br/&gt;- openFXMLWindow(String): void&lt;br/&gt;- handleNextButtonClicked(): void&lt;br/&gt;+ removeTextBetweenTags(String, String): String&lt;br/&gt;- handleFlashcardClicked(): void&lt;br/&gt;+ setFlashcard(flashCard): void&lt;/p&gt;" style="verticalAlign=top;align=left;overflow=fill;fontSize=14;fontFamily=Helvetica;html=1;rounded=0;shadow=0;comic=0;labelBackgroundColor=none;strokeWidth=1;" parent="1" vertex="1">
          <mxGeometry x="699" y="115" width="340" height="594" as="geometry" />
        </mxCell>
        <mxCell id="tag6454HZUf9Bsy3X2O9-4" style="edgeStyle=orthogonalEdgeStyle;shape=connector;rounded=0;orthogonalLoop=1;jettySize=auto;html=1;exitX=0.5;exitY=0;exitDx=0;exitDy=0;entryX=0.25;entryY=1;entryDx=0;entryDy=0;dashed=1;labelBackgroundColor=default;strokeColor=default;align=center;verticalAlign=middle;fontFamily=Helvetica;fontSize=11;fontColor=default;endArrow=open;endFill=0;" edge="1" parent="1" source="node4" target="node14">
          <mxGeometry relative="1" as="geometry" />
        </mxCell>
        <mxCell id="node4" value="&lt;p style=&quot;margin:0px;margin-top:4px;text-align:center;&quot;&gt;&lt;b&gt;History&lt;/b&gt;&lt;/p&gt;&lt;hr size=&quot;1&quot;/&gt;&lt;p style=&quot;margin:0 0 0 4px;line-height:1.6;&quot;&gt;- history: ArrayList&amp;lt;String&amp;gt;&lt;/p&gt;&lt;hr size=&quot;1&quot;/&gt;&lt;p style=&quot;margin:0 0 0 4px;line-height:1.6;&quot;&gt;+ getAllHis(): ArrayList&amp;lt;String&amp;gt;&lt;br/&gt;+ main(String[]): void&lt;/p&gt;" style="verticalAlign=top;align=left;overflow=fill;fontSize=14;fontFamily=Helvetica;html=1;rounded=0;shadow=0;comic=0;labelBackgroundColor=none;strokeWidth=1;" parent="1" vertex="1">
          <mxGeometry x="1028" y="1897" width="231" height="123" as="geometry" />
        </mxCell>
        <mxCell id="node11" value="&lt;p style=&quot;margin:0px;margin-top:4px;text-align:center;&quot;&gt;&lt;b&gt;HuongDanControl&lt;/b&gt;&lt;/p&gt;&lt;hr size=&quot;1&quot;/&gt;&lt;p style=&quot;margin:0 0 0 4px;line-height:1.6;&quot;&gt;- BACKTOMENU: Button&lt;br/&gt;- background: ImageView&lt;/p&gt;&lt;hr size=&quot;1&quot;/&gt;&lt;p style=&quot;margin:0 0 0 4px;line-height:1.6;&quot;&gt;+ initialize(): void&lt;br/&gt;- openFXMLWindow(String): void&lt;/p&gt;" style="verticalAlign=top;align=left;overflow=fill;fontSize=14;fontFamily=Helvetica;html=1;rounded=0;shadow=0;comic=0;labelBackgroundColor=none;strokeWidth=1;" parent="1" vertex="1">
          <mxGeometry x="452" y="1897" width="243" height="149" as="geometry" />
        </mxCell>
        <mxCell id="node3" value="&lt;p style=&quot;margin:0px;margin-top:4px;text-align:center;&quot;&gt;&lt;b&gt;LichSuControl&lt;/b&gt;&lt;/p&gt;&lt;hr size=&quot;1&quot;/&gt;&lt;p style=&quot;margin:0 0 0 4px;line-height:1.6;&quot;&gt;- wordMean: TextArea&lt;br/&gt;- flashcardButton: Button&lt;br/&gt;- searchResults: ObservableList&amp;lt;String&amp;gt;&lt;br/&gt;- his: ListView&amp;lt;String&amp;gt;&lt;br/&gt;- LICHSUBUTTON: Button&lt;br/&gt;- DICHVANBANBUTTON: Button&lt;br/&gt;- background: ImageView&lt;br/&gt;- THONGKEBUTTON: Button&lt;br/&gt;- TRATUBUTTON: Button&lt;br/&gt;- BACKTOMENU: Button&lt;br/&gt;- CHINHSUABUTTON: Button&lt;br/&gt;- GAMEBUTTON: Button&lt;br/&gt;- HUONGDANBUTTON: Button&lt;/p&gt;&lt;hr size=&quot;1&quot;/&gt;&lt;p style=&quot;margin:0 0 0 4px;line-height:1.6;&quot;&gt;- openFXMLWindow(String): void&lt;br/&gt;+ initialize(): void&lt;br/&gt;- loadHistory(): void&lt;/p&gt;" style="verticalAlign=top;align=left;overflow=fill;fontSize=14;fontFamily=Helvetica;html=1;rounded=0;shadow=0;comic=0;labelBackgroundColor=none;strokeWidth=1;" parent="1" vertex="1">
          <mxGeometry x="-101" y="1426" width="287" height="426" as="geometry" />
        </mxCell>
        <mxCell id="node2" value="&lt;p style=&quot;margin:0px;margin-top:4px;text-align:center;&quot;&gt;&lt;b&gt;MenuControl&lt;/b&gt;&lt;/p&gt;&lt;hr size=&quot;1&quot;/&gt;&lt;p style=&quot;margin:0 0 0 4px;line-height:1.6;&quot;&gt;- word: String&lt;br/&gt;- LichSu: Button&lt;br/&gt;- ThongKe: Button&lt;br/&gt;- search: TextField&lt;br/&gt;- HuongDan: Button&lt;br/&gt;- DichVanBan: Button&lt;br/&gt;- listHistory: ListView&amp;lt;String&amp;gt;&lt;br/&gt;- background: ImageView&lt;br/&gt;- ChinhSua: Button&lt;br/&gt;- Game: Button&lt;/p&gt;&lt;hr size=&quot;1&quot;/&gt;&lt;p style=&quot;margin:0 0 0 4px;line-height:1.6;&quot;&gt;+ close(): void&lt;br/&gt;- openFXMLWindow(String): void&lt;br/&gt;+ setGame(): void&lt;br/&gt;+ open(): void&lt;br/&gt;+ initialize(): void&lt;br/&gt;- openFXMLWindowTraTu(String): void&lt;/p&gt;" style="verticalAlign=top;align=left;overflow=fill;fontSize=14;fontFamily=Helvetica;html=1;rounded=0;shadow=0;comic=0;labelBackgroundColor=none;strokeWidth=1;" parent="1" vertex="1">
          <mxGeometry x="231" y="1426" width="278" height="426" as="geometry" />
        </mxCell>
        <mxCell id="node8" value="&lt;p style=&quot;margin:0px;margin-top:4px;text-align:center;&quot;&gt;&lt;b&gt;PopUp1Control&lt;/b&gt;&lt;/p&gt;&lt;hr size=&quot;1&quot;/&gt;&lt;p style=&quot;margin:0 0 0 4px;line-height:1.6;&quot;&gt;- close: Button&lt;/p&gt;&lt;hr size=&quot;1&quot;/&gt;&lt;p style=&quot;margin:0 0 0 4px;line-height:1.6;&quot;&gt;- openFXMLWindow(String): void&lt;br/&gt;+ initialize(): void&lt;/p&gt;" style="verticalAlign=top;align=left;overflow=fill;fontSize=14;fontFamily=Helvetica;html=1;rounded=0;shadow=0;comic=0;labelBackgroundColor=none;strokeWidth=1;" parent="1" vertex="1">
          <mxGeometry x="740" y="1897" width="243" height="123" as="geometry" />
        </mxCell>
        <mxCell id="node13" value="&lt;p style=&quot;margin:0px;margin-top:4px;text-align:center;&quot;&gt;&lt;b&gt;PopUpControl&lt;/b&gt;&lt;/p&gt;&lt;hr size=&quot;1&quot;/&gt;&lt;p style=&quot;margin:0 0 0 4px;line-height:1.6;&quot;&gt;- background: ImageView&lt;br/&gt;- WORDLE: Button&lt;br/&gt;- BACKTOMENU: Button&lt;br/&gt;- QUIZZ: Button&lt;br/&gt;- popup: Popup&lt;/p&gt;&lt;hr size=&quot;1&quot;/&gt;&lt;p style=&quot;margin:0 0 0 4px;line-height:1.6;&quot;&gt;- openFXMLWindow(String): void&lt;br/&gt;+ initialize(): void&lt;/p&gt;" style="verticalAlign=top;align=left;overflow=fill;fontSize=14;fontFamily=Helvetica;html=1;rounded=0;shadow=0;comic=0;labelBackgroundColor=none;strokeWidth=1;" parent="1" vertex="1">
          <mxGeometry x="1590" y="1426" width="243" height="210" as="geometry" />
        </mxCell>
        <mxCell id="node6" value="&lt;p style=&quot;margin:0px;margin-top:4px;text-align:center;&quot;&gt;&lt;b&gt;QuizzControl&lt;/b&gt;&lt;/p&gt;&lt;hr size=&quot;1&quot;/&gt;&lt;p style=&quot;margin:0 0 0 4px;line-height:1.6;&quot;&gt;~ counter: int&lt;br/&gt;~ wrong: int&lt;br/&gt;- questionLabel: Label&lt;br/&gt;+ answerforallList: List&amp;lt;String&amp;gt;&lt;br/&gt;~ correct: int&lt;br/&gt;- optionB: Button&lt;br/&gt;- background: ImageView&lt;br/&gt;- optionA: Button&lt;br/&gt;- optionC: Button&lt;br/&gt;- Back: Button&lt;br/&gt;- optionD: Button&lt;br/&gt;- connection: Connection&lt;br/&gt;- Correct_Ans: String&lt;/p&gt;&lt;hr size=&quot;1&quot;/&gt;&lt;p style=&quot;margin:0 0 0 4px;line-height:1.6;&quot;&gt;+ initializeDatabaseConnection(): void&lt;br/&gt;+ checkAnswer(String): boolean&lt;br/&gt;- openFXMLWindowResult(): void&lt;br/&gt;+ resetAnswersList(): void&lt;br/&gt;+ optionBchosen(ActionEvent): void&lt;br/&gt;+ initquestion(): void&lt;br/&gt;+ optionAchosen(ActionEvent): void&lt;br/&gt;+ optionDchosen(ActionEvent): void&lt;br/&gt;+ optionCchosen(ActionEvent): void&lt;br/&gt;- openFXMLWindow(): void&lt;br/&gt;+ loadQuestions(): void&lt;br/&gt;+ initialize(): void&lt;br/&gt;+ closeDatabaseConnection(): void&lt;br/&gt;+ getMeaningsFromWord(String): List&amp;lt;String&amp;gt;&lt;br/&gt;+ getOtherMeanings(String, String): List&amp;lt;String&amp;gt;&lt;/p&gt;" style="verticalAlign=top;align=left;overflow=fill;fontSize=14;fontFamily=Helvetica;html=1;rounded=0;shadow=0;comic=0;labelBackgroundColor=none;strokeWidth=1;" parent="1" vertex="1">
          <mxGeometry x="315" y="115" width="339" height="714" as="geometry" />
        </mxCell>
        <mxCell id="node5" value="&lt;p style=&quot;margin:0px;margin-top:4px;text-align:center;&quot;&gt;&lt;b&gt;ResultControl&lt;/b&gt;&lt;/p&gt;&lt;hr size=&quot;1&quot;/&gt;&lt;p style=&quot;margin:0 0 0 4px;line-height:1.6;&quot;&gt;+ result: Label&lt;br/&gt;+ backButton: Button&lt;br/&gt;+ replayButton: Button&lt;br/&gt;~ correct: int&lt;br/&gt;+ background: ImageView&lt;br/&gt;+ answerforall: Label&lt;br/&gt;+ congrat: Label&lt;br/&gt;+ falseans: Label&lt;br/&gt;~ wrong: int&lt;br/&gt;+ trueans: Label&lt;br/&gt;- getQuizResultList: List&amp;lt;String&amp;gt;&lt;/p&gt;&lt;hr size=&quot;1&quot;/&gt;&lt;p style=&quot;margin:0 0 0 4px;line-height:1.6;&quot;&gt;+ addResultList(String): void&lt;br/&gt;- initialize(): void&lt;br/&gt;- openFXMLWindow(String): void&lt;br/&gt;+ getQuizResult(): String&lt;/p&gt;" style="verticalAlign=top;align=left;overflow=fill;fontSize=14;fontFamily=Helvetica;html=1;rounded=0;shadow=0;comic=0;labelBackgroundColor=none;strokeWidth=1;" parent="1" vertex="1">
          <mxGeometry x="554" y="1426" width="243" height="402" as="geometry" />
        </mxCell>
        <mxCell id="node18" value="&lt;p style=&quot;margin:0px;margin-top:4px;text-align:center;&quot;&gt;&lt;b&gt;SynonymAPI&lt;/b&gt;&lt;/p&gt;&lt;hr size=&quot;1&quot;/&gt;&lt;p style=&quot;margin:0 0 0 4px;line-height:1.6;&quot;&gt;+ convert(ArrayList&amp;lt;String&amp;gt;): String&lt;br/&gt;+ getSynonym(String): ArrayList&amp;lt;String&amp;gt;&lt;/p&gt;" style="verticalAlign=top;align=left;overflow=fill;fontSize=14;fontFamily=Helvetica;html=1;rounded=0;shadow=0;comic=0;labelBackgroundColor=none;strokeWidth=1;" parent="1" vertex="1">
          <mxGeometry x="1695" y="1897" width="290" height="94" as="geometry" />
        </mxCell>
        <mxCell id="node7" value="&lt;p style=&quot;margin:0px;margin-top:4px;text-align:center;&quot;&gt;&lt;b&gt;TextToSpeech&lt;/b&gt;&lt;/p&gt;&lt;hr size=&quot;1&quot;/&gt;&lt;p style=&quot;margin:0 0 0 4px;line-height:1.6;&quot;&gt;+ playVoice(String): void&lt;/p&gt;" style="verticalAlign=top;align=left;overflow=fill;fontSize=14;fontFamily=Helvetica;html=1;rounded=0;shadow=0;comic=0;labelBackgroundColor=none;strokeWidth=1;" parent="1" vertex="1">
          <mxGeometry x="-101" y="2059" width="187" height="68" as="geometry" />
        </mxCell>
        <mxCell id="node10" value="&lt;p style=&quot;margin:0px;margin-top:4px;text-align:center;&quot;&gt;&lt;b&gt;TraTuControl&lt;/b&gt;&lt;/p&gt;&lt;hr size=&quot;1&quot;/&gt;&lt;p style=&quot;margin:0 0 0 4px;line-height:1.6;&quot;&gt;- TRATUBUTTON: Button&lt;br/&gt;- meaning: WebView&lt;br/&gt;- speaker: Button&lt;br/&gt;- GAMEBUTTON: Button&lt;br/&gt;- DICHVANBANBUTTON: Button&lt;br/&gt;- HUONGDANBUTTON: Button&lt;br/&gt;- search: TextField&lt;br/&gt;- THONGKEBUTTON: Button&lt;br/&gt;- LICHSUBUTTON: Button&lt;br/&gt;- background: ImageView&lt;br/&gt;- CHINHSUABUTTON: Button&lt;br/&gt;- BACKTOMENU: Button&lt;br/&gt;- word: String&lt;/p&gt;&lt;hr size=&quot;1&quot;/&gt;&lt;p style=&quot;margin:0 0 0 4px;line-height:1.6;&quot;&gt;+ initialize(): void&lt;br/&gt;+ playVoice(): void&lt;br/&gt;+ setword(String): void&lt;br/&gt;- openFXMLWindow(String): void&lt;/p&gt;" style="verticalAlign=top;align=left;overflow=fill;fontSize=14;fontFamily=Helvetica;html=1;rounded=0;shadow=0;comic=0;labelBackgroundColor=none;strokeWidth=1;" parent="1" vertex="1">
          <mxGeometry x="1672" y="115" width="243" height="450" as="geometry" />
        </mxCell>
        <mxCell id="node15" value="&lt;p style=&quot;margin:0px;margin-top:4px;text-align:center;&quot;&gt;&lt;b&gt;TranslateParagraph&lt;/b&gt;&lt;/p&gt;&lt;hr size=&quot;1&quot;/&gt;&lt;p style=&quot;margin:0 0 0 4px;line-height:1.6;&quot;&gt;+ translateParagraphEntoVi(String): String&lt;br/&gt;+ translateParagraphVitoEn(String): String&lt;br/&gt;- translateParagraph(String, String, String): String&lt;/p&gt;" style="verticalAlign=top;align=left;overflow=fill;fontSize=14;fontFamily=Helvetica;html=1;rounded=0;shadow=0;comic=0;labelBackgroundColor=none;strokeWidth=1;" parent="1" vertex="1">
          <mxGeometry x="-101" y="1900" width="346" height="120" as="geometry" />
        </mxCell>
        <mxCell id="node1" value="&lt;p style=&quot;margin:0px;margin-top:4px;text-align:center;&quot;&gt;&lt;b&gt;Trie&lt;/b&gt;&lt;/p&gt;&lt;hr size=&quot;1&quot;/&gt;&lt;p style=&quot;margin:0 0 0 4px;line-height:1.6;&quot;&gt;- currWord: ArrayList&amp;lt;String&amp;gt;&lt;br/&gt;- root: TrieNode&lt;/p&gt;&lt;hr size=&quot;1&quot;/&gt;&lt;p style=&quot;margin:0 0 0 4px;line-height:1.6;&quot;&gt;+ getCurrWord(): ArrayList&amp;lt;String&amp;gt;&lt;br/&gt;+ addNode(String): void&lt;br/&gt;+ delete(String): void&lt;br/&gt;- getAllNode(TrieNode, String): void&lt;br/&gt;- dfsGetWordsSubtree(TrieNode, String): void&lt;br/&gt;+ searchList(String): ArrayList&amp;lt;String&amp;gt;&lt;/p&gt;" style="verticalAlign=top;align=left;overflow=fill;fontSize=14;fontFamily=Helvetica;html=1;rounded=0;shadow=0;comic=0;labelBackgroundColor=none;strokeWidth=1;" parent="1" vertex="1">
          <mxGeometry x="842" y="1426" width="321" height="234" as="geometry" />
        </mxCell>
        <mxCell id="tag6454HZUf9Bsy3X2O9-1" value="" style="edgeStyle=orthogonalEdgeStyle;rounded=0;orthogonalLoop=1;jettySize=auto;html=1;dashed=1;endArrow=open;endFill=0;" edge="1" parent="1" source="node20" target="node1">
          <mxGeometry relative="1" as="geometry" />
        </mxCell>
        <mxCell id="node20" value="&lt;p style=&quot;margin:0px;margin-top:4px;text-align:center;&quot;&gt;&lt;b&gt;TrieNode&lt;/b&gt;&lt;/p&gt;&lt;hr size=&quot;1&quot;/&gt;&lt;p style=&quot;margin:0 0 0 4px;line-height:1.6;&quot;&gt;~ isEndOfWord: boolean&lt;br/&gt;~ children: Map&amp;lt;Character, TrieNode&amp;gt;&lt;/p&gt;" style="verticalAlign=top;align=left;overflow=fill;fontSize=14;fontFamily=Helvetica;html=1;rounded=0;shadow=0;comic=0;labelBackgroundColor=none;strokeWidth=1;" parent="1" vertex="1">
          <mxGeometry x="865.5" y="1240" width="274" height="94" as="geometry" />
        </mxCell>
        <mxCell id="node12" value="&lt;p style=&quot;margin:0px;margin-top:4px;text-align:center;&quot;&gt;&lt;b&gt;WordleControl&lt;/b&gt;&lt;/p&gt;&lt;hr size=&quot;1&quot;/&gt;&lt;p style=&quot;margin:0 0 0 4px;line-height:1.6;&quot;&gt;- userText5: TextField&lt;br/&gt;- stats: Label&lt;br/&gt;- textFlow: TextFlow&lt;br/&gt;- label5: Label&lt;br/&gt;- input: char[]&lt;br/&gt;- userText4: TextField&lt;br/&gt;- background: ImageView&lt;br/&gt;- label3: Label&lt;br/&gt;- label2: Label&lt;br/&gt;- done: boolean&lt;br/&gt;- possibleWords: String[]&lt;br/&gt;- userText1: TextField&lt;br/&gt;- text: Text&lt;br/&gt;- enterButton: Button&lt;br/&gt;- userText3: TextField&lt;br/&gt;- returnHome: Button&lt;br/&gt;- startTime: long&lt;br/&gt;- answer: char[]&lt;br/&gt;- tries: int&lt;br/&gt;- userText2: TextField&lt;br/&gt;- answerChosen: String&lt;br/&gt;+ ANSI_GREEN: String&lt;br/&gt;- label1: Label&lt;br/&gt;+ ANSI_YELLOW: String&lt;br/&gt;- label4: Label&lt;br/&gt;+ ANSI_RESET: String&lt;/p&gt;&lt;hr size=&quot;1&quot;/&gt;&lt;p style=&quot;margin:0 0 0 4px;line-height:1.6;&quot;&gt;- handleEnterKeyPress(TextField, TextField): void&lt;br/&gt;+ isValidWord(String, String[]): boolean&lt;br/&gt;+ close2(): void&lt;br/&gt;+ startWordle(): void&lt;br/&gt;- handleEnterButtonClick(TextField): void&lt;br/&gt;+ close5(): void&lt;br/&gt;+ endWordle(): void&lt;br/&gt;+ buttonPressed(TextField): void&lt;br/&gt;- openFXMLWindow(String): void&lt;br/&gt;+ open1(): void&lt;br/&gt;+ close1(): void&lt;br/&gt;+ close4(): void&lt;br/&gt;- openNextTextField(TextField): void&lt;br/&gt;- returnRandomWord(): String&lt;br/&gt;+ initialize(): void&lt;br/&gt;+ open2(): void&lt;br/&gt;+ playWordle(String): int[]&lt;br/&gt;- handleEnterButtonClickForTextField(TextField): void&lt;br/&gt;+ setNextLabel(TextFlow): void&lt;br/&gt;+ open5(): void&lt;br/&gt;+ returnColorOfLetters(char[], char[]): int[]&lt;br/&gt;- closeCurrentAndOpenNext(TextField): void&lt;br/&gt;+ open3(): void&lt;br/&gt;+ open4(): void&lt;br/&gt;+ close3(): void&lt;/p&gt;" style="verticalAlign=top;align=left;overflow=fill;fontSize=14;fontFamily=Helvetica;html=1;rounded=0;shadow=0;comic=0;labelBackgroundColor=none;strokeWidth=1;" parent="1" vertex="1">
          <mxGeometry x="-101" y="115" width="371" height="1266" as="geometry" />
        </mxCell>
        <mxCell id="tag6454HZUf9Bsy3X2O9-5" style="edgeStyle=orthogonalEdgeStyle;shape=connector;rounded=0;orthogonalLoop=1;jettySize=auto;html=1;exitX=0.5;exitY=0;exitDx=0;exitDy=0;entryX=0.75;entryY=1;entryDx=0;entryDy=0;dashed=1;labelBackgroundColor=default;strokeColor=default;align=center;verticalAlign=middle;fontFamily=Helvetica;fontSize=11;fontColor=default;endArrow=open;endFill=0;" edge="1" parent="1" source="node0" target="node14">
          <mxGeometry relative="1" as="geometry" />
        </mxCell>
        <mxCell id="node0" value="&lt;p style=&quot;margin:0px;margin-top:4px;text-align:center;&quot;&gt;&lt;b&gt;flashCard&lt;/b&gt;&lt;/p&gt;&lt;hr size=&quot;1&quot;/&gt;&lt;p style=&quot;margin:0 0 0 4px;line-height:1.6;&quot;&gt;- flashcards: Map&amp;lt;String, String&amp;gt;&lt;/p&gt;&lt;hr size=&quot;1&quot;/&gt;&lt;p style=&quot;margin:0 0 0 4px;line-height:1.6;&quot;&gt;+ retrieveFlashcardsFromDatabase(): void&lt;br/&gt;+ getQuestion(): String&lt;br/&gt;+ addFlashcard(String, String): void&lt;br/&gt;+ getAnswer(String): String&lt;br/&gt;+ getFlashcards(): Map&amp;lt;String, String&amp;gt;&lt;/p&gt;" style="verticalAlign=top;align=left;overflow=fill;fontSize=14;fontFamily=Helvetica;html=1;rounded=0;shadow=0;comic=0;labelBackgroundColor=none;strokeWidth=1;" parent="1" vertex="1">
          <mxGeometry x="1333" y="1897" width="295" height="186" as="geometry" />
        </mxCell>
      </root>
    </mxGraphModel>
  </diagram>
</mxfile>
